<svg width="984" height="984" viewBox="0 0 984 984" fill="none" xmlns="http://www.w3.org/2000/svg">
<g clip-path="url(#clip0_86_3086)">
<path fill-rule="evenodd" clip-rule="evenodd" d="M172.8 0H810.24C905.67 0 983.04 77.37 983.04 172.8V810.24C983.04 905.67 905.67 983.04 810.24 983.04H172.8C77.37 983.04 0 905.67 0 810.24V172.8C0 77.37 77.37 0 172.8 0Z" fill="#3D9211"/>
<path fill-rule="evenodd" clip-rule="evenodd" d="M172.8 0H810.24C905.67 0 983.04 77.37 983.04 172.8V771.84C983.04 867.27 905.67 944.64 810.24 944.64H172.8C77.37 944.64 0 867.27 0 771.84V172.8C0 77.37 77.37 0 172.8 0Z" fill="url(#paint0_linear_86_3086)"/>
<path fill-rule="evenodd" clip-rule="evenodd" d="M736.85 275.12L982.95 718.1L981.99 776.99L960.02 856.02L906.07 914.78L854.02 936.02L805.12 945.77L359.02 945.02L277.02 725.02L658.02 727.02L593.56 682.44L658.52 593.16L736.85 275.12Z" fill="url(#paint1_linear_86_3086)"/>
<path fill-rule="evenodd" clip-rule="evenodd" d="M359.02 302.02L362.02 736.02H722.02L705.02 637.02L656.02 549.02L654.02 298.02L359.02 302.02Z" fill="url(#paint2_linear_86_3086)" stroke="url(#paint3_linear_86_3086)" stroke-miterlimit="10"/>
<path fill-rule="evenodd" clip-rule="evenodd" d="M585.6 396.64L681.52 531.52L677.52 601.52L364.63 604.43L365.52 395.52L585.6 396.64Z" fill="url(#paint4_linear_86_3086)"/>
<path fill-rule="evenodd" clip-rule="evenodd" d="M794.24 669.28L919.02 903.02L916.02 905.85L879.02 930.02L829.38 943.68L801.43 944.63H358.87L281.47 736.96L715.02 724.02L794.24 669.28Z" fill="url(#paint5_linear_86_3086)"/>
<path d="M725.76 647.52C725.76 655.2 724.9 667.58 723.2 684.64C721.49 696.16 719.25 704.59 716.48 709.92C713.7 715.26 709.12 718.99 702.72 721.12C696.32 723.26 686.5 724.75 673.28 725.6C625.49 727.74 582.18 728.8 543.36 728.8C504.54 728.8 468.05 727.74 419.84 725.6C404.9 724.75 394.13 723.36 387.52 721.44C380.9 719.52 376.21 715.79 373.44 710.24C370.66 704.7 369.28 695.52 369.28 682.72V616.8H585.6V396.64L556.32 372.48L348.16 396.64C359.25 380.86 368.53 371.68 381.76 349.92H666.56C666.56 349.92 668.05 405.39 666.56 463.84C665.06 522.3 664.1 555.15 663.68 562.4C662.82 576.91 661.44 586.83 659.52 592.16C657.6 597.5 653.76 601.12 648 603.04C642.24 604.96 630.82 606.78 613.76 608.48L572.16 612.32L565.92 657.6L594.56 681.44L632.32 677.6C660.05 675.04 680.85 670.78 694.72 664.8C708.58 658.83 718.29 649.76 723.84 637.6C729.38 625.44 732.37 607.63 732.8 584.16C733.22 557.28 733.86 514.72 734.72 456.48C735.57 398.24 737.92 273.76 737.92 273.76L708.96 249.6L452.64 253.44L406.56 212.16L242.4 464.64L267.36 506.88L295.68 529.76V700C295.68 723.47 298.98 741.49 305.6 754.08C312.21 766.66 322.45 775.52 336.32 780.64C350.18 785.76 369.28 788.96 393.6 790.24C441.38 792.8 489.6 794.08 538.24 794.08C586.88 794.08 634.02 792.8 682.24 790.24C708.26 788.96 728.21 786.4 742.08 782.56C755.94 778.72 766.29 772.42 773.12 763.68C779.94 754.93 785.28 741.81 789.12 724.32C791.25 713.23 792.96 694.88 794.24 669.28L764.64 645.12L725.76 647.52ZM367.36 543.84V468.64H519.68V543.84H367.36Z" fill="#3D9211"/>
<path d="M356.02 316.02L382.02 350.02L640.22 349.88L641.02 316.02H356.02Z" fill="url(#paint6_linear_86_3086)"/>
<path fill-rule="evenodd" clip-rule="evenodd" d="M332.02 439.02L367.36 468.64L494.12 468.56L494.02 439.02H332.02Z" fill="url(#paint7_linear_86_3086)"/>
<path fill-rule="evenodd" clip-rule="evenodd" d="M332.02 587.02L369.28 616.799L587.02 617.02L556.02 586.02L332.02 587.02Z" fill="url(#paint8_linear_86_3086)"/>
<path fill-rule="evenodd" clip-rule="evenodd" d="M332.02 586.02L369.28 616.799C369.28 616.799 369.02 683.02 369.02 689.02C369.02 695.02 371.04 702.049 371.04 702.049L333.02 696.02L332.02 586.02Z" fill="url(#paint9_linear_86_3086)"/>
<path d="M696.96 623.52C696.96 631.2 696.1 643.58 694.4 660.64C692.69 672.16 690.45 680.59 687.68 685.92C684.9 691.26 680.32 694.99 673.92 697.12C667.52 699.26 657.7 700.75 644.48 701.6C596.69 703.74 553.38 704.8 514.56 704.8C475.74 704.8 431.57 703.74 383.36 701.6C368.42 700.75 357.65 699.36 351.04 697.44C344.42 695.52 339.73 691.79 336.96 686.24C334.18 680.7 332.8 671.52 332.8 658.72V587.04H556.8V372.64H319.36C330.45 356.86 342.61 338.08 355.84 316.32H640.64C640.21 340.22 639.25 381.39 637.76 439.84C636.26 498.3 635.3 531.15 634.88 538.4C634.02 552.91 632.64 562.83 630.72 568.16C628.8 573.5 624.96 577.12 619.2 579.04C613.44 580.96 602.02 582.78 584.96 584.48L543.36 588.32L565.76 657.44L603.52 653.6C631.25 651.04 652.05 646.78 665.92 640.8C679.78 634.83 689.49 625.76 695.04 613.6C700.58 601.44 703.57 583.63 704 560.16C704.42 533.28 705.06 490.72 705.92 432.48C706.77 374.24 707.68 313.18 708.96 249.6L391.04 249.76C394.88 241.66 400.21 229.07 407.04 212L334.72 188.96C321.92 224.38 302.4 261.92 276.16 301.6C249.92 341.28 220.8 378.19 188.8 412.32L242.56 465.44L266.88 438.56V676C266.88 699.47 270.18 717.49 276.8 730.08C283.41 742.66 293.65 751.52 307.52 756.64C321.38 761.76 340.48 764.96 364.8 766.24C412.58 768.8 460.8 770.08 509.44 770.08C558.08 770.08 605.22 768.8 653.44 766.24C679.46 764.96 699.41 762.4 713.28 758.56C727.14 754.72 737.49 748.42 744.32 739.68C751.14 730.93 756.48 717.81 760.32 700.32C762.45 689.23 764.16 670.88 765.44 645.28L696.96 623.52ZM332.8 519.84V439.84H490.88V519.84H332.8Z" fill="url(#paint10_linear_86_3086)"/>
</g>
<defs>
<linearGradient id="paint0_linear_86_3086" x1="491.52" y1="944.64" x2="491.52" y2="0" gradientUnits="userSpaceOnUse">
<stop stop-color="#6DBB44"/>
<stop offset="1" stop-color="#88E358"/>
</linearGradient>
<linearGradient id="paint1_linear_86_3086" x1="879.36" y1="941.49" x2="469.95" y2="532.09" gradientUnits="userSpaceOnUse">
<stop stop-color="#3D9211" stop-opacity="0"/>
<stop offset="0.15" stop-color="#3D9411" stop-opacity="0.11"/>
<stop offset="0.45" stop-color="#3D9B11" stop-opacity="0.39"/>
<stop offset="0.86" stop-color="#3DA611" stop-opacity="0.84"/>
<stop offset="1" stop-color="#3DAA11"/>
</linearGradient>
<linearGradient id="paint2_linear_86_3086" x1="724.52" y1="733.52" x2="326.02" y2="335.02" gradientUnits="userSpaceOnUse">
<stop stop-color="#3DAA11" stop-opacity="0"/>
<stop offset="0.19" stop-color="#3DA311" stop-opacity="0.26"/>
<stop offset="0.45" stop-color="#3D9C11" stop-opacity="0.58"/>
<stop offset="0.68" stop-color="#3D9611" stop-opacity="0.81"/>
<stop offset="0.87" stop-color="#3D9311" stop-opacity="0.95"/>
<stop offset="1" stop-color="#3D9211"/>
</linearGradient>
<linearGradient id="paint3_linear_86_3086" x1="358.52" y1="517.02" x2="722.61" y2="517.02" gradientUnits="userSpaceOnUse">
<stop stop-color="#3D9211"/>
<stop offset="0.27" stop-color="#3D8311"/>
<stop offset="0.68" stop-color="#3D7311"/>
<stop offset="1" stop-color="#3D6E11"/>
</linearGradient>
<linearGradient id="paint4_linear_86_3086" x1="626.81" y1="652.23" x2="367.81" y2="393.23" gradientUnits="userSpaceOnUse">
<stop stop-color="#3DAA11" stop-opacity="0"/>
<stop offset="0.09" stop-color="#3DA511" stop-opacity="0.2"/>
<stop offset="0.21" stop-color="#3D9F11" stop-opacity="0.45"/>
<stop offset="0.33" stop-color="#3D9A11" stop-opacity="0.65"/>
<stop offset="0.47" stop-color="#3D9611" stop-opacity="0.8"/>
<stop offset="0.62" stop-color="#3D9411" stop-opacity="0.91"/>
<stop offset="0.78" stop-color="#3D9211" stop-opacity="0.98"/>
<stop offset="1" stop-color="#3D9211"/>
</linearGradient>
<linearGradient id="paint5_linear_86_3086" x1="795.82" y1="1026.22" x2="394.01" y2="624.42" gradientUnits="userSpaceOnUse">
<stop stop-color="#3D9211" stop-opacity="0"/>
<stop offset="0.15" stop-color="#3D9411" stop-opacity="0.11"/>
<stop offset="0.45" stop-color="#3D9B11" stop-opacity="0.39"/>
<stop offset="0.86" stop-color="#3DA611" stop-opacity="0.84"/>
<stop offset="1" stop-color="#3DAA11"/>
</linearGradient>
<linearGradient id="paint6_linear_86_3086" x1="584.3" y1="405.8" x2="425.27" y2="246.77" gradientUnits="userSpaceOnUse">
<stop stop-color="#3D9211"/>
<stop offset="1" stop-color="#3DB411"/>
</linearGradient>
<linearGradient id="paint7_linear_86_3086" x1="468.34" y1="494.34" x2="372.52" y2="398.52" gradientUnits="userSpaceOnUse">
<stop stop-color="#3D9211"/>
<stop offset="1" stop-color="#3DB611"/>
</linearGradient>
<linearGradient id="paint8_linear_86_3086" x1="530.77" y1="673.27" x2="388.27" y2="530.77" gradientUnits="userSpaceOnUse">
<stop stop-color="#3D9211"/>
<stop offset="1" stop-color="#45C916"/>
</linearGradient>
<linearGradient id="paint9_linear_86_3086" x1="351.53" y1="702.049" x2="351.53" y2="586.02" gradientUnits="userSpaceOnUse">
<stop stop-color="#3D9211"/>
<stop offset="1" stop-color="#42C00F"/>
</linearGradient>
<linearGradient id="paint10_linear_86_3086" x1="693.92" y1="777.37" x2="299.28" y2="213.77" gradientUnits="userSpaceOnUse">
<stop stop-color="#F7F7F7"/>
<stop offset="1" stop-color="white"/>
</linearGradient>
<clipPath id="clip0_86_3086">
<rect width="983.04" height="983.04" fill="white"/>
</clipPath>
</defs>
</svg>
